<svg width="1912" height="1095" viewBox="0 0 1912 1095" fill="none" xmlns="http://www.w3.org/2000/svg">
<path fill-rule="evenodd" clip-rule="evenodd" d="M0 0V1095C0 1095 1555.61 917.363 1641.25 908.094C1726.89 898.825 1837.95 898.825 1852.22 706.903L1920 190.599V0H0Z" fill="url(#paint0_linear)"/>
<mask id="mask0" mask-type="alpha" maskUnits="userSpaceOnUse" x="0" y="0" width="1920" height="1095">
<path fill-rule="evenodd" clip-rule="evenodd" d="M0 0V1095C0 1095 1555.61 917.363 1641.25 908.094C1726.89 898.825 1837.95 898.825 1852.22 706.903L1920 190.599V0H0Z" fill="white"/>
</mask>
<g mask="url(#mask0)">
<g opacity="0.5">
<path d="M1282 435.507L1425 465L1418.54 265L1282 435.507Z" fill="#282C39" stroke="#282C39" stroke-width="1.51"/>
<path d="M1419 264.093L1168 40L1282.43 434L1419 264.093Z" fill="#282C39" stroke="#282C39" stroke-width="1.51"/>
<path d="M1422.42 465L1772 276.06L1416 265L1422.42 465Z" fill="#252934" stroke="#252934" stroke-width="1.51"/>
<path d="M1419 264L1277.81 -211L1168 39.8221L1419 264Z" fill="#262A37" stroke="#262A37" stroke-width="1.51"/>
<path d="M1289 1087L1597 897.199L1422.31 466L1289 1087Z" fill="#1F222B" stroke="#1F222B" stroke-width="1.51"/>
<path d="M1166.36 40L918 434H1280L1166.36 40Z" fill="#292D3A" stroke="#292D3A" stroke-width="1.51"/>
<path d="M1422 466L1844 414.371L1773.05 277L1422 466Z" fill="#232731" stroke="#232731" stroke-width="1.51"/>
<path d="M1964 -114L1754 17.2235L1773.26 276L1964 -114Z" fill="#1E2029" stroke="#1E2029" stroke-width="1.51"/>
<path d="M1772 276L1752.73 17L1416 264.979L1772 276Z" fill="#222530" stroke="#222530" stroke-width="1.51"/>
<path d="M1166 40L932.642 45.5105L918 434L1166 40Z" fill="#272B37" stroke="#272B37" stroke-width="1.51"/>
<path d="M1275 -211L932 46L1165.86 40.4731L1275 -211Z" fill="#262936" stroke="#262936" stroke-width="1.51"/>
<path d="M1422 465.479L1799.77 767L1844 414L1422 465.479Z" fill="#20232C" stroke="#20232C" stroke-width="1.51"/>
<path d="M1291.23 1085L1425 464.462L1282 435L1291.23 1085Z" fill="#242732" stroke="#242732" stroke-width="1.51"/>
<path d="M1756 15.9342L1277 -211L1417.94 264L1756 15.9342Z" fill="#242631" stroke="#242631" stroke-width="1.51"/>
<path d="M1597.17 895L1800 766.667L1422 466L1597.17 895Z" fill="#1F212A" stroke="#1F212A" stroke-width="1.51"/>
<path d="M918 435L1290 1085L1280.81 435H918Z" fill="#252934" stroke="#252934" stroke-width="1.51"/>
<path d="M916.927 435L724 963.47L1289 1085L916.927 435Z" fill="#20232D" stroke="#20232D" stroke-width="1.51"/>
<path d="M595 115L672.28 604L917 435.475L595 115Z" fill="#272A37" stroke="#272A37" stroke-width="1.51"/>
<path d="M1276 -211L774 -174.154L932.139 46L1276 -211Z" fill="#242834" stroke="#242834" stroke-width="1.51"/>
<path d="M932 46L595 114.972L917.268 435L932 46Z" fill="#252935" stroke="#252935" stroke-width="1.51"/>
<path d="M773.628 -173L595 116L932 46.9713L773.628 -173Z" fill="#242732" stroke="#242732" stroke-width="1.51"/>
<path d="M1800 767L2147 631.867L1844.06 414L1800 767Z" fill="#1F222A" stroke="#1F222A" stroke-width="1.51"/>
<path d="M2130.48 907L2147 632L1800 767.201L2130.48 907Z" fill="#1F2229" stroke="#1F2229" stroke-width="1.51"/>
<path d="M672 603.016L723.368 962L916 435L672 603.016Z" fill="#22252F" stroke="#22252F" stroke-width="1.51"/>
<path d="M622 983L725 962.811L673.036 604L622 983Z" fill="#1D2029" stroke="#1D2029" stroke-width="1.51"/>
<path d="M2084.11 1175L2131 906.018L1800 766L2084.11 1175Z" fill="#1D2025" stroke="#1D2025" stroke-width="1.51"/>
<path d="M351 398L624.375 982L675 602.767L351 398Z" fill="#21242E" stroke="#21242E" stroke-width="1.51"/>
<path d="M90 231.182L349.953 399L597 115L90 231.182Z" fill="#282C38" stroke="#282C38" stroke-width="1.51"/>
<path d="M597.682 115L351 398.638L675 604L597.682 115Z" fill="#272A37" stroke="#272A37" stroke-width="1.51"/>
<path d="M773 -173.456L418 -226L594.58 116L773 -173.456Z" fill="#222530" stroke="#222530" stroke-width="1.51"/>
<path d="M10 926L512.649 1115L622 983.801L10 926Z" fill="#22252E" stroke="#22252E" stroke-width="1.51"/>
<path d="M622.687 983.267L513 1115L725 963L622.687 983.267Z" fill="#20222B" stroke="#20222B" stroke-width="1.51"/>
<path d="M418.64 -226L268 -131.051L595 116L418.64 -226Z" fill="#242733" stroke="#242733" stroke-width="1.51"/>
<path d="M268.833 -131L90 231L597 115.234L268.833 -131Z" fill="#272A37" stroke="#272A37" stroke-width="1.51"/>
<path d="M349.081 398L10 924.151L622 982L349.081 398Z" fill="#22252F" stroke="#22252F" stroke-width="1.51"/>
<path d="M89.6911 231L10 924L348 398.054L89.6911 231Z" fill="#2A2D39" stroke="#2A2D39" stroke-width="1.51"/>
</g>
</g>
<defs>
<linearGradient id="paint0_linear" x1="1813.04" y1="0" x2="1813.04" y2="973.001" gradientUnits="userSpaceOnUse">
<stop stop-color="#20232D"/>
<stop offset="1" stop-color="#151720"/>
</linearGradient>
</defs>
</svg>
